<?xml version="1.0" encoding="UTF-8"?>
<svg xmlns="http://www.w3.org/2000/svg" width="132" height="65" viewBox="0 0 132 65" fill="none">
  <g clip-path="url(#clip0_13_21)">
    <path d="M20.8361 17.7065C21.4085 17.2495 21.8664 16.9068 22.4389 16.6784C23.0113 16.4499 23.5837 16.2214 24.0416 16.2214C24.4996 16.2214 24.9575 16.1072 25.4154 16.2214C25.7589 16.3357 26.1023 16.4499 26.3313 16.5641C26.1023 16.9068 25.6444 17.478 25.072 18.3919C24.4996 19.3058 23.8127 20.2197 23.2402 21.2478C22.5533 22.2759 21.9809 23.304 21.4085 24.2179C20.8361 25.1318 20.4926 25.9314 20.1492 26.3884L19.1188 28.1019C19.8057 28.6731 20.4926 29.13 21.1795 29.7012C21.8664 30.2724 22.5533 30.6151 23.3547 30.9578C24.3851 29.2443 25.5299 27.4165 26.6748 25.703C27.8196 23.9894 29.0789 22.3901 30.5672 20.9051C31.1396 20.2197 31.8265 19.6485 32.5134 19.0773C33.2003 18.5061 33.8872 18.0492 34.6886 17.5923C35.2611 17.2495 35.719 17.0211 36.2914 16.6784C36.8638 16.4499 37.4363 16.3357 38.1232 16.3357C38.3521 16.3357 38.5811 16.3357 38.9245 16.4499C39.1535 16.2214 39.497 16.2214 39.8404 16.3357C40.1839 16.4499 40.4128 16.5641 40.6418 16.7926C40.8708 17.0211 40.9853 17.3638 40.9853 17.7065C40.9853 18.0492 40.9853 18.3919 40.9853 18.7346C40.8708 19.877 40.6418 20.9051 40.0694 21.9332C39.497 22.9613 39.039 23.9894 38.4666 24.9033C37.2073 27.0738 35.6045 28.7873 33.7728 30.2724C31.941 31.6432 29.9948 32.6713 28.0486 33.3568C27.2472 34.7276 26.5603 36.0984 25.9879 37.4692C25.301 38.8401 24.843 40.2109 24.3851 41.6959C24.1561 42.3814 24.0416 43.0668 24.0416 43.8664C23.9271 44.6661 24.0416 45.3515 24.2706 45.9227C24.4996 46.4938 24.843 46.8365 25.5299 46.9508C26.1023 47.065 27.0182 46.8365 28.1631 46.2654C28.7355 45.9227 29.4224 45.4657 30.2238 44.8945C30.9107 44.3234 31.7121 43.6379 32.399 42.8383C33.0859 42.0386 33.7728 41.239 34.4597 40.3251C35.1466 39.4112 35.719 38.4973 36.1769 37.5835C36.6349 37.4692 36.8638 37.355 37.2073 37.4692C37.4363 37.5835 37.6652 37.8119 37.6652 38.2689C37.2073 39.1828 36.6349 40.0966 36.0624 41.0105C35.49 41.9244 34.8031 42.9525 34.0017 43.8664C33.2003 44.7803 32.399 45.6942 31.4831 46.4938C30.5672 47.2935 29.6513 48.0931 28.621 48.7785C27.4761 49.5782 26.2168 49.9209 25.072 50.1494C23.9271 50.2636 22.7823 50.1494 21.8664 49.6924C20.9506 49.2355 20.1492 48.5501 19.5768 47.4077C19.0043 46.3796 18.7754 45.0088 18.7754 43.4095C18.7754 41.6959 19.1188 39.9824 19.8057 38.3831C20.4926 36.6696 21.1795 35.0703 21.9809 33.5852C21.1795 33.471 20.4926 33.3567 19.6912 33.1283C18.8899 32.8998 18.2029 32.6713 17.6305 32.3286C17.6305 33.6995 17.516 34.956 17.2871 36.3269C17.0581 37.6977 16.8291 38.9543 16.4857 40.2109C15.5698 43.6379 14.3105 46.9508 12.8222 50.1494C12.0208 51.7487 11.2194 53.2337 10.3036 54.833C9.38768 56.3181 8.35733 57.6889 7.21249 59.0597C6.64007 59.6309 6.06765 60.2021 5.38075 60.659C4.69384 61.116 3.89245 61.3444 3.09107 61.3444C2.51865 61.3444 2.06071 61.116 1.60278 60.8875C1.14484 60.659 0.801388 60.2021 0.57242 59.7451C0.114484 58.9455 0 58.2601 0 57.5747C0 56.775 0.114484 56.0896 0.343452 55.29C0.57242 54.4903 0.801388 53.8049 1.14484 53.0053C1.48829 52.3198 1.71726 51.6344 1.94623 50.949C2.63313 49.2355 3.43452 47.522 4.23591 45.9227C5.03729 44.3234 5.83868 42.6098 6.75455 41.0105C7.67042 39.297 8.47181 37.6977 9.38768 36.0984C10.3036 34.4991 11.2194 32.7856 12.1353 31.1863C12.2498 30.9578 12.3643 30.7293 12.4788 30.5009C12.5932 30.2724 12.7077 30.0439 12.8222 29.8154C12.2498 29.587 11.5629 29.3585 10.9905 29.13C10.418 28.9016 9.73114 28.7873 9.15872 28.7873C9.04423 28.5589 9.04423 28.3304 9.15872 27.9877C9.2732 27.645 9.38768 27.4165 9.50217 27.188C9.9601 26.3884 10.647 25.9314 11.6774 25.703C12.2498 25.5887 12.8222 25.4745 13.3946 25.5887C13.967 25.703 14.5395 25.703 15.1119 25.9314C15.4553 25.3603 15.9133 24.6749 16.2567 24.1037C16.6002 23.5325 17.0581 22.8471 17.4016 22.2759C17.974 21.4763 18.4319 20.6766 19.0043 19.877C19.5768 18.9631 20.1492 18.2777 20.8361 17.7065ZM13.3946 44.2091C13.967 42.7241 14.5395 41.239 14.9974 39.8682C15.4553 38.3831 15.7988 36.898 16.0278 35.2988C16.1422 35.0703 16.1422 34.8418 16.1422 34.4991C16.1422 34.2706 16.1422 34.0422 16.2567 33.6995C15.1119 35.7557 13.967 37.8119 12.8222 39.7539C11.6774 41.6959 10.5325 43.7522 9.38768 45.8084C8.81526 46.8365 8.24284 47.8647 7.67042 48.8928C7.098 49.9209 6.52559 51.0633 6.06765 52.0914C5.83868 52.6625 5.60971 53.2337 5.26626 53.8049C5.03729 54.3761 4.80833 54.9473 4.57936 55.6327C4.35039 56.4323 4.23591 57.0035 4.23591 57.232C4.35039 57.4604 4.46487 57.5747 4.69384 57.4604C4.92281 57.3462 5.26626 57.1177 5.60971 56.8893C5.95317 56.5466 6.29662 56.3181 6.64007 55.9754C7.09801 55.4042 7.55594 54.9473 8.01388 54.3761C8.47181 53.8049 8.81526 53.2337 9.2732 52.6625C10.7615 49.9209 12.2498 47.065 13.3946 44.2091ZM35.2611 22.7328C34.3452 23.8752 33.4293 25.0176 32.6279 26.2741C31.8265 27.5307 31.0252 28.6731 30.2238 30.0439C31.3686 29.4727 32.399 28.6731 33.3148 27.7592C34.3452 26.8453 35.2611 25.703 36.1769 24.3321C36.7493 23.5325 37.2073 22.7329 37.5507 21.9332C38.0087 21.1336 38.3521 20.3339 38.5811 19.42C38.0087 19.9912 37.4363 20.4481 36.8638 21.0193C36.2914 21.5905 35.719 22.1617 35.2611 22.7328Z" fill="white"></path>
    <path d="M49.1136 28.7874C49.5716 28.6731 50.0295 28.5589 50.6019 28.6731C51.5178 28.9016 52.2047 29.3585 52.7771 30.0439C53.3495 30.8436 53.693 31.529 53.9219 32.4429C54.2654 33.8137 54.2654 35.1845 53.9219 36.6696C53.693 38.1547 53.235 39.5255 52.6626 40.7821C53.693 41.239 54.6089 41.1248 55.5247 40.4394C56.4406 39.8682 57.3565 38.8401 58.0434 37.4692C58.9592 37.0123 59.4172 37.355 59.5317 38.2689C58.5013 40.2109 57.3565 41.5817 55.8682 42.6098C54.3799 43.638 52.5481 44.2091 50.4874 44.4376C50.0295 45.123 49.4571 45.6942 48.8847 46.3796C48.3122 47.065 47.7398 47.6362 47.0529 48.0932C46.366 48.5501 45.6791 49.007 44.8777 49.3497C44.0763 49.6925 43.2749 49.9209 42.4735 49.9209C41.4432 50.0352 40.5273 49.8067 39.7259 49.464C38.9245 49.1213 38.1232 48.5501 37.5507 47.9789C36.9783 47.2935 36.4059 46.4939 36.0624 45.6942C35.719 44.7803 35.49 43.8664 35.3755 42.9526C35.2611 41.8102 35.3755 40.7821 35.49 39.6397C35.6045 38.4974 35.948 37.4693 36.4059 36.4411C36.8638 35.413 37.3218 34.3849 38.0087 33.471C38.5811 32.5571 39.3825 31.7575 40.0694 30.9578C40.8708 30.2724 41.6722 29.587 42.7025 29.1301C43.7329 28.6731 44.6487 28.3304 45.6791 28.2162C46.2515 28.1019 46.8239 28.2162 47.3964 28.2162C47.9688 28.3304 48.5412 28.4446 48.9991 28.6731L49.1136 28.7874ZM46.9384 39.0685C47.5108 38.6116 48.0833 38.2689 48.6557 37.9262C49.2281 37.6977 49.8005 37.5835 50.2585 37.9262C50.4874 38.0404 50.7164 38.2689 50.8309 38.3831C51.0598 37.5835 51.1743 36.6696 51.2888 35.7557C51.2888 34.8418 51.2888 33.928 51.0598 33.0141C50.9454 32.4429 50.7164 32.1002 50.3729 31.7575C50.0295 31.4148 49.686 31.0721 49.2281 30.8436C48.6557 30.8436 48.0833 30.8436 47.6253 30.9578C47.1674 31.0721 46.595 31.3005 46.137 31.529C45.3356 31.9859 44.6487 32.5571 43.9618 33.3568C43.2749 34.1564 42.7025 35.0703 42.1301 35.9842C41.6722 37.0123 41.2142 37.9262 40.8708 39.0685C40.5273 40.2109 40.4128 41.1248 40.2984 42.0387C40.1839 42.9526 40.2984 43.8664 40.6418 44.5519C40.8708 45.2373 41.3287 45.8084 42.0156 46.1512C42.817 46.6081 43.7329 46.6081 44.7632 46.2654C45.7936 45.9227 46.8239 45.2373 47.7398 44.0949C47.2819 43.9807 46.9384 43.7522 46.595 43.5237C46.2515 43.2953 46.0226 42.9526 45.7936 42.4956C45.5646 41.9244 45.5646 41.3533 45.7936 40.7821C46.0226 40.0967 46.366 39.5255 46.9384 39.0685Z" fill="white"></path>
    <path d="M81.1691 28.9016C80.8257 29.3586 80.3677 29.9297 79.9098 30.7294C79.4519 31.529 78.8794 32.3287 78.4215 33.1283C77.9636 33.928 77.3912 34.8419 76.8187 35.87C76.3608 36.7839 75.9029 37.6978 75.4449 38.4974C74.6435 40.2109 73.9566 41.696 73.4987 42.8384C73.0408 43.9807 72.9263 44.7804 73.1553 45.1231C73.2697 45.2373 73.3842 45.3515 73.6132 45.3515C73.8422 45.3515 74.0711 45.2373 74.4146 45.2373C74.6435 45.1231 74.987 45.0088 75.216 44.8946C75.4449 44.7804 75.5594 44.6661 75.6739 44.5519C76.3608 44.0949 76.9332 43.638 77.5056 43.0668C78.0781 42.4956 78.536 41.9245 78.9939 41.2391C79.4519 40.6679 79.7953 39.9825 80.2533 39.4113C80.7112 38.7259 81.0546 38.1547 81.3981 37.4693C81.7415 37.355 82.085 37.355 82.314 37.4693C82.5429 37.5835 82.7719 37.812 82.8864 38.2689C82.4285 39.0686 82.085 39.8682 81.6271 40.6679C81.1691 41.4675 80.7112 42.1529 80.2533 42.9526C79.7953 43.7522 79.2229 44.4376 78.6505 45.1231C78.0781 45.8085 77.5056 46.4939 76.9332 47.0651C76.3608 47.6362 75.6739 48.2074 74.987 48.6644C74.3001 49.1213 73.4987 49.3498 72.5828 49.2355C71.667 49.2355 70.9801 49.0071 70.2932 48.4359C69.6062 47.9789 69.1483 47.2935 68.8049 46.4939C68.6904 46.1512 68.5759 45.6942 68.4614 45.2373C68.0035 45.9227 67.4311 46.6081 66.8586 47.1793C66.2862 47.7505 65.7138 48.3217 64.9124 48.6644C63.8821 49.2355 62.8517 49.464 61.8213 49.3498C60.6765 49.2355 59.7606 48.8928 58.9592 48.0932C58.1579 47.4078 57.6999 46.4939 57.3565 45.58C57.1275 44.5519 56.8985 43.638 56.8985 42.6099C56.8985 41.3533 57.1275 40.0967 57.4709 38.9543C57.8144 37.6978 58.3868 36.5554 58.9592 35.413C59.5317 34.2707 60.2186 33.2426 61.0199 32.3287C61.8213 31.4148 62.6227 30.5009 63.5386 29.7013C64.4545 28.9016 65.3703 28.2162 66.5152 27.7593C67.66 27.3023 68.8049 27.0739 69.9497 27.0739C71.0945 27.1881 72.1249 27.5308 72.9263 28.102C73.8422 28.7874 74.4146 29.587 74.8725 30.6152C75.216 30.1582 75.6739 29.8155 76.1318 29.4728C76.5898 29.1301 77.1622 28.9016 77.6201 28.6731C78.1925 28.4447 78.765 28.3304 79.4519 28.4447C80.2533 28.3304 80.8257 28.5589 81.1691 28.9016ZM66.4007 41.696C67.7745 40.6679 69.0338 39.4113 70.1787 37.9262C71.3235 36.3269 72.0104 34.7276 72.3539 33.0141C72.4683 32.3287 72.4683 31.7575 72.3539 31.0721C72.1249 30.3867 71.667 30.044 70.8656 29.9297C70.2932 29.8155 69.7207 29.9297 69.1483 30.2724C68.5759 30.6152 68.118 30.9579 67.66 31.4148C66.2862 32.6714 65.2559 34.1565 64.4545 35.87C63.6531 37.5835 62.9662 39.297 62.6227 41.1248C62.1648 42.9526 62.2793 44.0949 62.8517 44.6661C63.4241 45.2373 64.2255 45.2373 65.2559 44.7804C65.9428 44.4376 66.5152 43.9807 67.0876 43.5238C67.66 43.0668 68.2324 42.4956 68.6904 42.0387C68.2324 42.1529 67.7745 42.1529 67.3166 42.1529C66.9731 42.0387 66.6297 41.9245 66.4007 41.696Z" fill="white"></path>
    <path d="M95.4796 19.5342C95.5941 19.9912 95.5941 20.3339 95.4796 20.6766C95.3651 21.0193 95.1362 21.2478 95.0217 21.7047L94.4493 22.8471C95.1362 22.9613 95.7086 22.9613 96.1665 23.0755C96.7389 23.304 97.3114 23.5325 97.7693 23.9894C98.2272 24.4464 98.4562 25.0175 98.6852 25.5887C98.7996 26.0457 98.7996 26.3884 98.6852 26.5026C98.5707 26.6168 98.3417 26.7311 97.9983 26.7311C97.6548 26.8453 97.1969 26.8453 96.6245 26.9595C96.052 27.0738 95.4796 27.0738 94.9072 27.188C94.3348 27.3022 93.8768 27.3022 93.4189 27.4165C92.961 27.5307 92.6175 27.5307 92.3885 27.5307H92.2741L91.2437 29.8154L87.2368 37.8119C87.1223 38.0404 86.8933 38.4973 86.5499 39.1827C86.2064 39.8682 85.863 40.5536 85.5195 41.3532C84.7181 42.9525 84.3747 44.2091 84.3747 45.0088C84.3747 45.8084 84.7181 46.2653 85.1761 46.3796C85.7485 46.4938 86.4354 46.2653 87.3513 45.6942C88.2671 45.123 89.183 44.3233 90.2134 43.181C90.9003 42.3813 91.5872 41.5817 92.1596 40.6678C92.732 39.7539 93.3044 38.7258 93.8768 37.5834C94.7927 37.1265 95.3651 37.355 95.3651 38.3831C94.9072 39.297 94.3348 40.2109 93.7624 41.1247C93.1899 42.0386 92.6175 42.9525 91.9306 43.8664C91.2437 44.7803 90.5568 45.5799 89.7554 46.3796C88.954 47.1792 88.1527 47.8646 87.3513 48.4358C86.6644 49.007 85.7485 49.3497 84.8326 49.5782C83.9167 49.8066 82.8864 49.8066 81.9705 49.5782C81.2836 49.4639 80.7112 49.1212 80.2533 48.5501C79.7953 47.9789 79.4519 47.4077 79.3374 46.7223C79.1084 46.0369 79.1084 45.2372 79.1084 44.5518C79.1084 43.7522 79.2229 43.0667 79.4519 42.2671C79.6808 41.4675 79.9098 40.782 80.1388 40.0966C80.3677 39.4112 80.7112 38.7258 80.9402 38.0404C81.6271 36.3269 82.4285 34.7276 83.3443 33.1283C84.2602 31.529 85.1761 30.0439 85.9775 28.4446C85.0616 28.5588 84.1457 28.6731 83.4588 28.7873C82.6574 28.9015 82.1995 28.9015 81.9705 28.9015C81.856 28.5588 81.7415 28.2161 81.7415 27.7592C81.7415 27.3022 81.856 26.9595 81.9705 26.5026C82.085 26.0457 82.314 25.703 82.5429 25.3602C82.7719 25.0175 83.0009 24.7891 83.2298 24.5606C83.9167 23.9894 84.7181 23.6467 85.634 23.4182C86.5499 23.1898 87.3513 23.0755 88.1526 22.9613C88.2671 22.9613 88.4961 22.9613 88.6106 22.9613C88.7251 22.9613 88.954 22.9613 89.0685 22.8471L90.4423 20.3339C90.6713 19.9912 90.9003 19.5342 91.0147 19.1915C91.1292 18.8488 91.4727 18.5061 91.8161 18.1634C92.0451 17.9349 92.3886 17.9349 92.732 17.9349C93.0755 18.0492 93.5334 18.1634 93.8768 18.2776C94.2203 18.3919 94.5638 18.6203 94.7927 18.8488C95.2507 19.1915 95.3651 19.42 95.4796 19.5342Z" fill="white"></path>
    <path d="M104.753 29.5869C104.18 30.3866 103.722 31.1862 103.265 31.9859C102.807 32.5571 102.463 33.2425 102.12 33.8137C101.776 34.4991 101.433 34.956 101.204 35.1845C100.746 35.8699 100.402 36.6695 99.83 37.4692C99.3721 38.2688 98.9141 39.1827 98.4562 39.9824C97.9983 40.782 97.6548 41.6959 97.3114 42.4956C96.9679 43.2952 96.8534 44.0949 96.8534 44.7803C96.8534 45.123 96.8534 45.3514 96.9679 45.5799C97.0824 45.8084 97.3114 45.9226 97.5403 45.9226C97.7693 45.9226 98.2272 45.6942 98.7997 45.3514C99.2576 45.0087 99.9445 44.4376 100.746 43.5237C101.547 42.6098 102.234 41.6959 102.807 40.782C103.379 39.8681 104.066 38.84 104.638 37.9261C105.211 36.898 105.669 35.8699 106.241 34.8418C106.814 33.8137 107.5 32.8998 108.073 31.8717C108.531 31.3005 108.989 30.6151 109.561 30.0439C110.134 29.4727 110.706 29.0158 111.393 28.5588C111.736 28.3304 112.08 28.2161 112.538 28.1019C112.996 27.9876 113.339 27.8734 113.797 27.8734C114.255 27.8734 114.713 27.8734 115.056 27.8734C115.514 27.9876 115.858 27.9876 116.201 28.2161C115.743 29.0158 115.171 30.0439 114.484 31.4147C113.797 32.7855 113.225 33.9279 112.538 35.1845C111.736 36.898 110.935 38.6115 110.134 40.3251C109.332 42.0386 108.645 43.7521 107.844 45.4657L106.814 47.5219C107.729 47.065 108.645 46.4938 109.447 45.9226C110.363 45.3514 111.164 44.666 111.965 43.9806C112.309 43.6379 112.767 43.2952 113.225 42.8383C113.683 42.3813 114.255 41.9244 114.713 41.3532C115.171 40.782 115.743 40.2108 116.201 39.6397C116.659 39.0685 117.117 38.3831 117.461 37.5834C117.918 37.4692 118.262 37.355 118.605 37.355C118.949 37.355 119.063 37.6977 119.063 38.3831C118.491 39.5254 117.69 40.6678 116.659 41.9244C115.629 43.181 114.484 44.4376 113.225 45.5799C111.965 46.7223 110.706 47.8646 109.218 48.8927C107.844 49.9209 106.356 50.8347 104.982 51.5202C104.867 51.5202 104.867 51.5202 104.867 51.5202C104.867 51.5202 104.867 51.5202 104.753 51.5202C104.18 52.7767 103.494 53.9191 102.807 55.1757C102.12 56.318 101.433 57.5746 100.631 58.717C100.173 59.4024 99.601 60.0878 99.0286 60.7732C98.4562 61.4586 97.7693 62.0298 97.0824 62.601C96.3955 63.1722 95.5941 63.6291 94.7927 64.0861C93.9913 64.543 93.1899 64.7715 92.2741 64.9999C91.4727 65.1142 90.5568 65.1142 89.7554 64.9999C88.954 64.8857 88.1526 64.543 87.4657 64.2003C86.7788 63.7434 86.2064 63.2864 85.7485 62.601C85.2906 61.9156 85.0616 61.1159 85.0616 60.2021C85.0616 59.4024 85.1761 58.717 85.5195 58.0316C85.863 57.3462 86.2064 56.6608 86.7788 56.0896C87.3513 55.5184 87.9237 54.9472 88.4961 54.4903C89.0685 54.0333 89.7554 53.6906 90.4423 53.3479C91.7017 52.7768 93.0755 52.2056 94.4493 51.8629C95.8231 51.5202 97.1969 51.1775 98.5707 50.7205C98.9141 49.9209 99.2576 49.1212 99.7155 48.2073C100.059 47.4077 100.402 46.4938 100.746 45.6941C100.402 46.2653 100.059 46.7223 99.601 47.2934C99.1431 47.8646 98.6852 48.3216 98.2272 48.6643C97.7693 49.007 97.1969 49.3497 96.6245 49.5782C96.052 49.8066 95.4796 49.8066 94.7927 49.5782C94.2203 49.4639 93.6479 49.1212 93.0755 48.7785C92.503 48.4358 92.1596 47.9789 91.8161 47.4077C91.4727 46.8365 91.2437 46.2653 91.1292 45.5799C91.0147 44.8945 91.0147 44.0949 91.2437 43.2952C91.7016 41.6959 92.2741 39.8681 93.1899 37.9261C93.9913 35.9841 95.0217 34.2706 96.052 32.7855C96.281 32.4428 96.51 32.1001 96.7389 31.6432C96.9679 31.1862 97.3114 30.8435 97.6548 30.5008C97.9983 30.1581 98.3417 29.8154 98.6852 29.4727C99.0286 29.13 99.3721 28.9015 99.83 28.6731C100.631 28.3304 101.318 28.2161 102.005 28.4446C103.15 28.5588 103.951 29.0158 104.753 29.5869ZM95.5941 57.6889C95.8231 57.1177 96.1665 56.6608 96.51 56.0896C96.8534 55.5184 97.0824 54.9472 97.3114 54.376L95.3651 54.9472C94.7927 55.1757 94.1058 55.2899 93.5334 55.5184C92.8465 55.7469 92.2741 55.9753 91.7016 56.2038C91.1292 56.4323 90.5568 56.775 89.9844 57.1177C89.412 57.4604 88.954 57.9173 88.6106 58.4885C88.2671 59.0597 88.0382 59.6309 88.0382 60.3163C88.0382 61.0017 88.3816 61.4586 88.954 61.8014C89.5265 62.1441 90.2134 62.2583 90.9003 62.1441C91.5872 62.0298 92.2741 61.8014 92.732 61.3444C93.3044 60.8875 93.8768 60.3163 94.3348 59.6309C94.9072 58.9455 95.2507 58.3743 95.5941 57.6889Z" fill="white"></path>
    <path fill-rule="evenodd" clip-rule="evenodd" d="M132 5.82603C102.807 3.19862 67.889 12.6802 49.686 26.0457C62.9662 18.0492 96.1665 7.08262 121.582 10.167C118.147 13.9368 111.736 21.4763 108.187 27.3023C109.676 27.5308 109.676 27.4165 111.164 27.1881C115.171 22.1617 126.276 10.0527 132 5.82603Z" fill="white"></path>
    <path fill-rule="evenodd" clip-rule="evenodd" d="M54.8378 20.2197C72.2394 10.7381 88.1526 6.05448 102.234 5.1406C98.3417 3.5413 94.9072 1.82777 91.8161 0C77.6201 2.39895 65.8283 9.71002 54.8378 20.2197Z" fill="#00ADEE"></path>
    <path fill-rule="evenodd" clip-rule="evenodd" d="M74.987 16.6784C88.7251 12.3375 105.325 9.93853 119.063 11.3094C112.652 18.6204 108.531 24.7891 108.76 25.3603C108.989 23.4183 109.676 21.5905 110.591 19.9912C112.767 15.8788 111.507 14.1652 108.874 13.3656C102.234 11.3094 83.1153 15.1934 74.987 16.6784Z" fill="#D0D2D3"></path>
  </g>
  <defs>
    <clipPath id="clip0_13_21">
      <rect width="132" height="65" fill="white"></rect>
    </clipPath>
  </defs>
</svg>
