<?xml version="1.0" encoding="utf-8"?>
<!-- Generator: Adobe Illustrator 27.7.0, SVG Export Plug-In . SVG Version: 6.00 Build 0)  -->
<svg version="1.1" id="Layer_1" xmlns="http://www.w3.org/2000/svg" xmlns:xlink="http://www.w3.org/1999/xlink" x="0px" y="0px"
	 viewBox="0 0 271.5 98.2" style="enable-background:new 0 0 271.5 98.2;" xml:space="preserve">
<style type="text/css">
	.st0{fill:#FFFFFF;}
	.st1{fill:#7171B4;}
</style>
<rect class="st0" width="271.5" height="98.2"/>
<g>
	<g>
		<path d="M180.4,17.4c0,0.2,0,0.3-0.1,0.3c-2.2,0-3.9,1.4-5,4.1l-9.8,24.8c0,0.1-0.2,0.2-0.5,0.2c-0.3,0-0.4-0.1-0.5-0.2l-6.1-13.3
			l-5.2,13.3c0,0.1-0.2,0.2-0.5,0.2c-0.3,0-0.4-0.1-0.5-0.2L140.3,21c-0.6-1.3-1.2-2.2-1.7-2.6c-0.6-0.5-1.3-0.7-2.2-0.7
			c-0.1,0-0.1-0.1-0.1-0.3c0-0.2,0-0.3,0.1-0.3l1.6,0c0.9,0.1,1.6,0.1,2.2,0.1c1.3,0,2.6,0,4-0.1c0.5,0,1.1,0,1.8,0
			c0.1,0,0.1,0.1,0.1,0.3c0,0.2,0,0.3-0.1,0.3c-0.9,0-1.6,0.1-2,0.3c-0.4,0.2-0.6,0.6-0.6,1.1c0,0.5,0.2,1.1,0.6,2l9.8,20.9l4-10
			l-5-10.9c-0.5-1.2-1.1-2.1-1.7-2.6c-0.6-0.5-1.3-0.8-2.1-0.8c-0.1,0-0.1-0.1-0.1-0.3c0-0.2,0-0.3,0.1-0.3l1.6,0
			c0.8,0.1,1.4,0.1,2,0.1c1.1,0,2.1,0,3.1-0.1c0.3,0,0.7,0,1.3,0c0.1,0,0.1,0.1,0.1,0.3c0,0.2,0,0.3-0.1,0.3c-0.6,0-1,0.1-1.2,0.2
			c-0.2,0.1-0.4,0.3-0.4,0.6c0,0.3,0.3,1.2,0.9,2.6l3.2,6.9l2.5-6.4c0.4-0.9,0.6-1.7,0.6-2.4c0-1-0.6-1.5-1.9-1.5
			c-0.1,0-0.1-0.1-0.1-0.3c0-0.2,0-0.3,0.1-0.3l1,0c0.6,0.1,1.3,0.1,2.1,0.1c0.6,0,1.3,0,2.1-0.1l1.9,0c0.1,0,0.1,0.1,0.1,0.3
			c0,0.2,0,0.3-0.1,0.3c-1,0-2,0.3-2.7,0.9c-0.8,0.6-1.5,1.7-2,3.1l-3,7.5l6,12.7l8.1-20.3c0.3-0.7,0.4-1.3,0.4-1.8
			c0-1.4-1.1-2.2-3.4-2.2c-0.1,0-0.1-0.1-0.1-0.3c0-0.2,0-0.3,0.1-0.3l2,0c1.1,0.1,2,0.1,2.9,0.1c0.7,0,1.4,0,2.2-0.1l2,0
			C180.4,17.1,180.4,17.2,180.4,17.4z"/>
		<path d="M178.4,46.3c0-0.2,0-0.3,0.1-0.3c1.2,0,1.9-0.2,2.3-0.6c0.4-0.4,0.6-1.3,0.6-2.6V34c0-1.1-0.1-1.9-0.3-2.4
			c-0.2-0.5-0.6-0.8-1.2-0.8c-0.5,0-1.2,0.2-2.1,0.7h0c-0.1,0-0.2-0.1-0.3-0.2c-0.1-0.2,0-0.3,0.1-0.3l6.3-2.9l0.2,0
			c0.1,0,0.2,0,0.3,0.1c0.1,0.1,0.2,0.2,0.2,0.3c0,0.2,0,0.8,0,1.9c0,1,0,2.3,0,3.7v8.8c0,0.9,0.1,1.6,0.2,2.1
			c0.1,0.5,0.4,0.8,0.8,0.9s1,0.3,1.8,0.3c0.1,0,0.1,0.1,0.1,0.3c0,0.2,0,0.3-0.1,0.3c-0.8,0-1.4,0-1.8,0l-2.5,0l-2.6,0
			c-0.4,0-1,0-1.7,0C178.4,46.6,178.4,46.5,178.4,46.3z M180.9,22c-0.4-0.4-0.6-0.9-0.6-1.6c0-0.6,0.2-1.1,0.6-1.5
			c0.4-0.4,0.9-0.6,1.6-0.6c0.7,0,1.2,0.2,1.6,0.6c0.4,0.4,0.6,0.9,0.6,1.5c0,0.7-0.2,1.2-0.6,1.6s-0.9,0.6-1.6,0.6
			C181.9,22.6,181.3,22.4,180.9,22z"/>
		<path d="M210.1,46.3c0,0.2,0,0.3-0.1,0.3c-0.8,0-1.4,0-1.8,0l-2.5,0l-2.5,0c-0.4,0-1,0-1.8,0c-0.1,0-0.1-0.1-0.1-0.3
			c0-0.2,0-0.3,0.1-0.3c0.8,0,1.4-0.1,1.8-0.3c0.4-0.2,0.7-0.5,0.8-0.9c0.1-0.5,0.2-1.1,0.2-2.1v-7.5c0-1.8-0.3-3.2-1-4
			c-0.7-0.9-1.8-1.3-3.2-1.3c-0.9,0-1.8,0.2-2.8,0.7c-1,0.5-1.8,1.1-2.6,2v10.1c0,0.9,0.1,1.6,0.2,2.1c0.1,0.5,0.4,0.8,0.8,0.9
			c0.4,0.2,1,0.3,1.8,0.3c0.1,0,0.1,0.1,0.1,0.3c0,0.2,0,0.3-0.1,0.3c-0.8,0-1.4,0-1.8,0l-2.5,0l-2.5,0c-0.4,0-1,0-1.8,0
			c-0.1,0-0.1-0.1-0.1-0.3c0-0.2,0-0.3,0.1-0.3c0.8,0,1.4-0.1,1.8-0.3c0.4-0.2,0.7-0.5,0.8-0.9c0.1-0.5,0.2-1.1,0.2-2.1v-9.2
			c0-1-0.1-1.8-0.4-2.3c-0.3-0.5-0.7-0.7-1.2-0.7c-0.5,0-1.3,0.2-2.5,0.7h0c-0.1,0-0.2-0.1-0.3-0.2c-0.1-0.1,0-0.2,0.1-0.3l5.7-2.7
			l0.3,0c0.3,0,0.6,0.4,0.9,1.1s0.5,1.6,0.5,2.8c2.3-2.7,4.7-4.1,7.2-4.1c1.7,0,3.1,0.5,4,1.5c1,1,1.4,2.4,1.4,4.3v9.2
			c0,0.9,0.1,1.6,0.2,2.1c0.1,0.5,0.4,0.8,0.8,0.9c0.4,0.2,1,0.3,1.8,0.3C210,46,210.1,46.1,210.1,46.3z"/>
		<path d="M224.5,45.6c1.1,0.1,2,0.6,2.9,1.3s1.3,1.8,1.3,3.3c0,1.7-0.5,3.3-1.7,4.8c-1.1,1.5-2.6,2.7-4.4,3.5
			c-1.8,0.9-3.7,1.3-5.7,1.3c-2.1,0-3.8-0.5-5.1-1.5s-1.9-2.2-1.9-3.7c0-2.3,1.6-4.6,4.8-6.8c-1.1-0.2-2-0.5-2.6-1
			c-0.6-0.5-0.9-1.2-0.9-2.2c0-0.9,0.3-1.8,0.8-2.6c0.5-0.8,1.4-1.6,2.6-2.5c-1.1-0.5-2-1.3-2.6-2.2c-0.6-1-0.9-2-0.9-3.1
			c0-1.8,0.7-3.3,2.2-4.4c1.5-1.1,3.3-1.7,5.5-1.7c2,0,3.6,0.5,4.9,1.5c0.9-0.5,1.7-0.9,2.5-1.2c0.8-0.3,1.6-0.4,2.5-0.4
			c0.1,0,0.2,0.1,0.2,0.4s0.1,0.5,0.1,0.8c0,0.4,0,0.8-0.1,1.2c-0.1,0.4-0.2,0.6-0.3,0.5c-1-0.5-2.1-0.7-3.2-0.7c-0.4,0-0.8,0-1,0
			c1,1.1,1.6,2.5,1.6,4c0,1.1-0.3,2.2-1,3.1s-1.6,1.7-2.7,2.3c-1.1,0.6-2.4,0.8-3.9,0.8c-1,0-2-0.2-3-0.5c-0.6,0.5-1,0.9-1.2,1.4
			c-0.3,0.4-0.4,0.9-0.4,1.5c0,0.7,0.2,1.3,0.7,1.7c0.4,0.4,1.1,0.6,2.1,0.8c0.9,0.1,2.3,0.2,4,0.2C222,45.4,223.4,45.4,224.5,45.6z
			 M224.1,56.7c1.3-1.1,1.9-2.6,1.9-4.5c0-1.3-0.3-2.2-0.9-2.8c-0.6-0.6-1.4-1-2.4-1.1c-1-0.2-2.4-0.3-4.2-0.3c-1.3,0-2.2,0-2.7-0.1
			c-0.9,0.6-1.7,1.3-2.2,2.1c-0.5,0.8-0.8,1.7-0.8,2.9c0,1.7,0.5,3.1,1.7,4.1c1.1,1,2.6,1.5,4.5,1.5
			C221.1,58.4,222.8,57.8,224.1,56.7z M215.1,29.8c-0.6,0.7-0.8,1.7-0.8,3.1c0,1.4,0.2,2.6,0.7,3.6c0.5,1,1.1,1.8,1.9,2.3
			c0.8,0.5,1.6,0.8,2.4,0.8c1,0,1.8-0.4,2.4-1.1c0.6-0.7,0.9-1.9,0.9-3.4c0-1.9-0.5-3.5-1.5-4.6c-1-1.1-2.2-1.7-3.6-1.7
			C216.4,28.8,215.6,29.2,215.1,29.8z"/>
		<path d="M233,33.7c0.7,0.7,1.7,1.4,3.1,2.1c1.1,0.6,2,1.1,2.6,1.5s1.2,1,1.6,1.6c0.4,0.7,0.7,1.5,0.7,2.4c0,1.6-0.6,3-1.8,4.1
			s-2.8,1.7-5,1.7c-0.8,0-1.6-0.1-2.3-0.3c-0.7-0.2-1.5-0.6-2.2-1.1c-0.2-0.1-0.3-0.3-0.3-0.6l-0.1-3.8c0-0.1,0.1-0.1,0.3-0.2
			c0.2,0,0.3,0,0.3,0.1c0.6,1.6,1.4,2.8,2.4,3.7c1,0.9,2.1,1.3,3.4,1.3c0.9,0,1.6-0.2,2.1-0.7c0.5-0.4,0.8-1.1,0.8-2
			c0-1.3-0.4-2.2-1.1-2.9c-0.7-0.7-1.8-1.4-3.2-2.1c-1.1-0.5-1.9-1-2.5-1.4c-0.6-0.4-1.1-0.9-1.5-1.6c-0.4-0.7-0.6-1.5-0.6-2.5
			c0-1.7,0.6-3,1.9-3.9c1.3-0.9,2.8-1.3,4.6-1.3c1.3,0,2.4,0.2,3.5,0.7c0.3,0.1,0.4,0.3,0.4,0.5c0,0.7,0,1.2,0,1.6l0,2
			c0,0.1-0.1,0.1-0.3,0.1s-0.3,0-0.3-0.1c0-1-0.5-1.9-1.6-2.7s-2.2-1.2-3.4-1.2c-0.8,0-1.4,0.2-1.8,0.6s-0.7,1-0.7,1.8
			C231.9,32.2,232.3,33.1,233,33.7z"/>
	</g>
	<g>
		<path d="M42.8,45.1c-2.3-1.4-4-3.2-5.3-5.6c-1.2-2.3-1.9-4.9-1.9-7.7c0-3.2,0.8-6,2.5-8.3c1.6-2.3,3.7-4,6.3-5.2
			c2.6-1.2,5.2-1.7,7.9-1.7c3,0,5.6,0.7,7.9,2.1c2.3,1.4,4,3.2,5.2,5.5c1.2,2.3,1.8,4.7,1.8,7.3c0,2.9-0.8,5.5-2.3,7.9
			c-1.5,2.4-3.5,4.3-6.1,5.7c-2.5,1.4-5.3,2.1-8.2,2.1C47.7,47.2,45.1,46.5,42.8,45.1z M57.9,44.6c1.7-1,3-2.6,3.9-4.6
			c1-2,1.4-4.4,1.4-7.1c0-2.9-0.5-5.5-1.6-7.8c-1.1-2.3-2.6-4.1-4.5-5.4c-1.9-1.3-4.2-1.9-6.8-1.9c-3.4,0-6,1.1-7.9,3.3
			c-1.9,2.2-2.8,5.3-2.8,9.2c0,3,0.5,5.6,1.6,8.1c1.1,2.4,2.6,4.3,4.5,5.7c1.9,1.4,4.1,2.1,6.6,2.1C54.4,46.1,56.2,45.6,57.9,44.6z"
			/>
		<path d="M72.7,45.8c-1.4-0.9-2.4-2.1-3.1-3.5c-0.7-1.4-1-2.9-1-4.5c0-2,0.5-3.8,1.6-5.3c1-1.5,2.4-2.6,4-3.4s3.3-1.2,5-1.2
			c1.4,0,2.7,0.3,3.8,0.8c1.1,0.6,1.7,1.3,1.7,2.1c0,0.5-0.2,0.9-0.5,1.2c-0.3,0.3-0.8,0.5-1.3,0.5c-1,0-1.8-0.6-2.3-1.7
			c-0.3-0.7-0.7-1.2-1.2-1.5c-0.5-0.3-1.1-0.5-2-0.5c-1.7,0-3,0.7-4,2.1c-0.9,1.4-1.4,3.2-1.4,5.4c0,2.6,0.6,4.8,1.9,6.5
			c1.3,1.7,3.3,2.5,5.9,2.5c1.8,0,3.4-0.5,4.7-1.5h0.1c0.1,0,0.2,0,0.3,0.1c0.1,0.1,0.1,0.2,0,0.2c-1.1,1-2.2,1.7-3.3,2.2
			c-1.1,0.5-2.4,0.7-3.7,0.7C75.8,47.2,74.1,46.7,72.7,45.8z"/>
		<path d="M100.9,43.9c0.1,0,0.2,0.1,0.3,0.2c0.1,0.1,0.1,0.2,0,0.3c-2.1,1.9-4.4,2.8-7,2.8c-1.9,0-3.4-0.4-4.8-1.2
			c-1.3-0.8-2.3-1.9-3-3.3c-0.7-1.4-1-2.9-1-4.5c0-1.9,0.4-3.6,1.3-5.1c0.9-1.5,2.1-2.8,3.7-3.7c1.5-0.9,3.2-1.3,5.1-1.3
			c1.8,0,3.2,0.5,4.2,1.4c1,0.9,1.4,2.3,1.4,4c0,0.8-0.2,1.3-0.6,1.3l-11.6,0c-0.1,0.7-0.1,1.2-0.1,1.6c0,2.7,0.6,4.9,1.9,6.6
			c1.3,1.7,3.1,2.5,5.5,2.5c0.9,0,1.7-0.1,2.4-0.4C99.2,44.8,100,44.4,100.9,43.9L100.9,43.9z M90.6,30.3c-0.8,0.9-1.4,2.1-1.7,3.8
			l8.6-0.2c0-1.6-0.3-2.8-1-3.7c-0.6-0.8-1.5-1.2-2.7-1.2C92.5,28.9,91.5,29.4,90.6,30.3z"/>
		<path d="M119.9,44.1c0.1,0,0.2,0.1,0.2,0.2c0,0.1,0,0.2-0.1,0.3l-4.9,2.3c-0.1,0.1-0.3,0.1-0.4,0.1c-0.4,0-0.8-0.3-1.1-0.8
			c-0.3-0.5-0.6-1.3-0.7-2.2l-2.4,1.6c-0.8,0.5-1.4,0.9-2.1,1.1c-0.6,0.2-1.3,0.3-2,0.3c-1.2,0-2.1-0.3-2.8-0.9
			c-0.7-0.6-1-1.4-1-2.3c0-1,0.4-1.8,1.2-2.5c0.8-0.7,2.1-1.3,3.8-2l5-1.8v-3.1c0-1.9-0.2-3.3-0.7-4.1c-0.5-0.8-1.2-1.3-2.1-1.3
			c-1,0-1.8,0.4-2.4,1.1c-0.5,0.7-0.9,1.5-1,2.5c-0.2,1.4-0.8,2.1-1.9,2.1c-0.6,0-1-0.1-1.3-0.4c-0.3-0.3-0.4-0.6-0.4-1
			c0-0.8,0.5-1.6,1.5-2.4c1-0.8,2.2-1.4,3.6-1.9c1.4-0.5,2.6-0.8,3.7-0.8c1.3,0,2.3,0.4,3,1.2c0.7,0.8,1.1,2,1.1,3.6v8.7
			c0,1.1,0.1,1.9,0.4,2.4c0.3,0.5,0.8,0.8,1.4,0.8C118.2,44.6,119,44.4,119.9,44.1L119.9,44.1z M112.9,43.2v-0.3v-5l-4,1.6
			c-0.8,0.3-1.5,0.7-1.9,1.2c-0.4,0.5-0.7,1-0.7,1.7c0,0.8,0.2,1.4,0.7,1.9c0.5,0.5,1.1,0.7,1.9,0.7c0.6,0,1.3-0.2,2.1-0.7
			L112.9,43.2z"/>
		<path d="M141.3,46.3c0,0.2,0,0.3-0.1,0.3c-0.8,0-1.4,0-1.8,0l-2.5,0l-2.5,0c-0.4,0-1,0-1.8,0c-0.1,0-0.1-0.1-0.1-0.3
			c0-0.2,0-0.3,0.1-0.3c0.8,0,1.4-0.1,1.8-0.3c0.4-0.2,0.7-0.5,0.8-0.9c0.1-0.5,0.2-1.1,0.2-2.1v-7.5c0-1.8-0.3-3.2-1-4
			c-0.7-0.9-1.8-1.3-3.2-1.3c-0.9,0-1.8,0.2-2.8,0.7c-1,0.5-1.8,1.1-2.6,2v10.1c0,0.9,0.1,1.6,0.2,2.1c0.1,0.5,0.4,0.8,0.8,0.9
			c0.4,0.2,1,0.3,1.8,0.3c0.1,0,0.1,0.1,0.1,0.3c0,0.2,0,0.3-0.1,0.3c-0.8,0-1.4,0-1.8,0l-2.5,0l-2.5,0c-0.4,0-1,0-1.8,0
			c-0.1,0-0.1-0.1-0.1-0.3c0-0.2,0-0.3,0.1-0.3c0.8,0,1.4-0.1,1.8-0.3c0.4-0.2,0.7-0.5,0.8-0.9c0.1-0.5,0.2-1.1,0.2-2.1v-9.2
			c0-1-0.1-1.8-0.4-2.3c-0.3-0.5-0.7-0.7-1.2-0.7c-0.5,0-1.3,0.2-2.5,0.7h0c-0.1,0-0.2-0.1-0.3-0.2c-0.1-0.1,0-0.2,0.1-0.3l5.7-2.7
			l0.3,0c0.3,0,0.6,0.4,0.9,1.1s0.5,1.6,0.5,2.8c2.3-2.7,4.7-4.1,7.2-4.1c1.7,0,3.1,0.5,4,1.5c1,1,1.4,2.4,1.4,4.3v9.2
			c0,0.9,0.1,1.6,0.2,2.1c0.1,0.5,0.4,0.8,0.8,0.9c0.4,0.2,1,0.3,1.8,0.3C141.3,46,141.3,46.1,141.3,46.3z"/>
	</g>
</g>
<g>
	<path class="st1" d="M38.2,77.2c0,0,15.2,6.1,32.1,5.9c16.9-0.2,46.2-7.2,62-7.2s30.4,2.8,44.9,7.2c0,0-32.8-18.1-64.1-16.7
		c-17.6,0.8-35.2,8-49.1,10C54.5,77.7,38.2,77.2,38.2,77.2z"/>
	<path class="st1" d="M76,67.6c0,0,24.1-16.3,49.6-15.1c33.8,1.5,62.6,19.3,70.1,22.2c14,5.3,33.4,1.4,33.4,1.4s-12.5,6.9-27.2,5.8
		c-20.7-1.5-49.4-19.2-73.5-20.4c-12.5-0.6-26.9,0.6-35,2.2C85.4,65.3,76,67.6,76,67.6z"/>
	<path class="st1" d="M164.1,55.7c0,0,39.5,13.2,48.7,14.2c9.9,1.1,16.5-1.7,17.5-6.6c0.8-3.7-0.5-7.1-4.1-8.2
		c-3.9-1.2-10.6-0.1-10.6-0.1s7-3.4,11.8-2.3c6.2,1.4,9.1,4.2,8.7,10c-0.4,5.7-4.8,10.5-11.9,11.3c-7.1,0.8-13,0-24.1-3
		S164.1,55.7,164.1,55.7z"/>
</g>
</svg>
